<?xml version="1.0" standalone="no"?>
<!DOCTYPE svg PUBLIC "-//W3C//DTD SVG 20010904//EN"
 "http://www.w3.org/TR/2001/REC-SVG-20010904/DTD/svg10.dtd">
<svg version="1.0" xmlns="http://www.w3.org/2000/svg"
 width="1024.000000pt" height="1024.000000pt" viewBox="0 0 1024.000000 1024.000000"
 preserveAspectRatio="xMidYMid meet">

<g transform="translate(0.000000,1024.000000) scale(0.100000,-0.100000)"
fill="#000000" stroke="none">
<path d="M5697 8670 c-189 -67 -297 -221 -297 -424 0 -189 99 -341 277 -428
l85 -41 -3 -739 c-4 -838 -13 -760 81 -772 74 -10 182 -45 177 -59 -6 -19 -58
-28 -153 -28 l-91 0 -7 -257 c-4 -141 -13 -315 -22 -387 -27 -240 -73 -1089
-61 -1137 7 -27 27 -41 45 -29 11 6 80 275 127 491 14 69 46 215 70 325 24
110 68 326 99 480 52 266 83 407 126 575 23 91 40 230 40 325 0 151 -60 285
-185 415 -51 53 -85 97 -89 115 -9 43 9 685 20 694 5 4 30 15 55 25 145 53
263 203 292 371 30 178 -82 381 -258 465 -62 30 -81 34 -170 37 -82 3 -111 0
-158 -17z m266 -173 c62 -36 111 -95 136 -161 42 -112 20 -219 -62 -300 -214
-213 -549 7 -462 302 24 81 100 155 186 181 57 17 152 7 202 -22z m72 -1919
c33 -40 32 -78 -4 -117 -83 -89 -204 24 -126 118 41 48 89 48 130 -1z"/>
<path d="M7635 8584 c-107 -22 -184 -64 -251 -137 -33 -35 -70 -86 -84 -115
l-25 -52 -90 6 c-250 17 -448 -133 -485 -368 -19 -122 18 -278 86 -359 19 -22
34 -45 34 -50 0 -13 -286 -292 -355 -345 -55 -43 -126 -81 -277 -148 -40 -17
-58 -30 -58 -43 0 -10 21 -45 45 -77 57 -75 83 -146 93 -249 l7 -82 22 55 c11
30 31 87 43 125 51 160 62 174 309 385 204 174 224 189 288 222 56 27 71 30
146 29 161 -3 280 41 370 138 177 192 181 443 11 621 -49 52 -55 63 -49 87 19
76 144 188 239 214 25 7 79 9 142 5 101 -6 101 -6 112 20 30 64 5 99 -85 120
-71 17 -99 16 -188 -2z m-386 -484 c108 -55 177 -172 168 -286 -5 -71 -24
-116 -74 -173 -51 -60 -103 -83 -195 -89 -69 -4 -84 -2 -132 22 -55 27 -96 70
-132 136 -29 53 -27 210 3 265 34 64 106 123 174 144 50 15 139 6 188 -19z"/>
<path d="M4488 8283 c-83 -88 -161 -274 -174 -410 -8 -82 14 -203 50 -284 28
-63 134 -226 164 -252 11 -10 29 -17 38 -15 44 8 169 223 199 343 19 77 19
202 -1 284 -23 97 -94 237 -154 304 -59 65 -83 71 -122 30z m87 -232 c59 -117
80 -270 51 -376 -12 -48 -62 -155 -71 -155 -2 0 -20 28 -39 63 -64 113 -81
234 -51 351 17 64 64 166 76 166 5 0 20 -22 34 -49z"/>
<path d="M2625 7827 c-101 -34 -294 -149 -410 -245 -79 -65 -202 -182 -241
-230 -33 -41 -44 -62 -44 -89 0 -49 16 -73 47 -73 26 0 181 68 471 207 73 34
137 63 142 63 14 0 33 -41 23 -50 -4 -5 -55 -30 -113 -55 -58 -26 -148 -67
-200 -93 -52 -25 -124 -60 -160 -77 -92 -43 -157 -83 -164 -102 -12 -31 42
-61 59 -33 10 16 93 55 170 80 105 34 381 178 437 227 14 13 18 12 37 -8 12
-13 21 -28 21 -33 0 -6 -39 -33 -88 -60 -48 -27 -114 -68 -147 -91 -81 -57
-260 -146 -227 -114 42 43 -34 35 -141 -14 -43 -20 -77 -42 -77 -50 0 -16 31
-47 48 -47 7 0 12 -11 12 -25 0 -14 1 -25 3 -25 17 0 113 40 161 67 34 19 76
41 95 49 19 8 66 36 106 63 39 27 123 75 185 106 107 54 115 56 127 39 7 -10
10 -21 6 -25 -5 -4 -53 -31 -108 -60 -55 -29 -121 -67 -146 -85 -65 -47 -279
-152 -358 -175 -23 -7 -45 -19 -48 -27 -7 -17 13 -62 27 -62 23 0 383 183 510
259 133 80 162 90 168 61 1 -10 -29 -33 -85 -64 -49 -27 -119 -68 -158 -91
-38 -22 -81 -46 -95 -52 -161 -73 -320 -157 -320 -167 0 -8 6 -19 14 -25 16
-14 23 -11 171 59 61 28 126 59 145 68 64 30 274 153 312 183 33 26 38 27 52
13 9 -8 16 -19 16 -23 0 -4 -35 -27 -77 -51 -43 -24 -109 -64 -147 -88 -38
-24 -139 -77 -225 -118 -214 -102 -206 -97 -206 -119 0 -17 7 -20 44 -19 34 1
82 21 224 94 100 51 207 109 238 129 32 20 85 53 119 75 50 31 64 36 71 25 17
-26 9 -45 -23 -57 -18 -6 -93 -47 -165 -90 -73 -44 -207 -117 -298 -162 -124
-62 -165 -88 -165 -102 0 -13 8 -18 30 -18 27 0 93 32 360 172 58 31 218 122
278 159 21 13 25 12 38 -6 13 -18 13 -21 -8 -29 -27 -12 -183 -101 -283 -162
-38 -23 -131 -72 -206 -108 -141 -68 -165 -85 -155 -111 9 -23 28 -19 148 36
105 47 159 76 393 215 112 66 162 88 170 73 4 -6 5 -12 3 -14 -30 -31 -393
-243 -544 -318 -49 -25 -96 -52 -103 -61 -13 -15 -7 -56 8 -56 15 0 316 158
441 231 197 115 231 131 247 117 19 -15 9 -24 -97 -84 -47 -26 -116 -66 -154
-88 -39 -23 -147 -81 -240 -131 -167 -88 -201 -116 -161 -131 9 -4 41 3 70 15
79 33 492 252 555 294 30 20 60 37 66 37 21 0 25 -32 7 -46 -36 -26 -396 -225
-545 -301 -58 -29 -109 -61 -112 -70 -7 -16 10 -43 26 -43 16 0 236 113 453
234 116 64 219 115 230 114 35 -5 21 -30 -27 -49 -26 -10 -73 -36 -105 -58
-80 -54 -212 -128 -357 -201 -67 -33 -135 -72 -151 -84 -25 -20 -28 -26 -16
-40 7 -9 20 -16 28 -16 18 0 297 145 435 226 170 100 249 137 262 124 8 -9 4
-17 -17 -34 -29 -23 -230 -137 -402 -226 -141 -74 -253 -141 -259 -156 -3 -7
1 -20 9 -30 12 -18 17 -17 82 17 267 141 336 178 468 258 111 67 153 87 162
79 24 -20 13 -34 -59 -73 -40 -21 -90 -49 -111 -63 -22 -13 -134 -75 -250
-139 -117 -63 -220 -123 -231 -133 -19 -19 -15 -54 7 -63 7 -3 42 13 77 34 36
22 112 65 170 96 164 87 278 153 358 205 72 46 102 52 102 19 0 -11 -36 -36
-102 -73 -441 -241 -578 -322 -578 -344 0 -14 21 -34 38 -34 7 0 37 15 65 34
52 34 134 80 327 186 58 31 142 78 188 104 84 49 117 55 117 22 0 -12 -14 -24
-45 -36 -41 -16 -314 -165 -435 -237 -28 -16 -83 -49 -122 -72 -57 -34 -73
-48 -73 -67 0 -12 5 -26 10 -29 10 -6 165 74 355 182 39 22 122 69 185 103 63
35 125 70 137 78 21 13 23 12 30 -4 8 -21 2 -25 -132 -103 -55 -32 -143 -83
-195 -113 -52 -31 -144 -81 -205 -113 -135 -72 -148 -81 -134 -106 5 -11 18
-19 28 -19 17 0 421 221 589 322 67 40 85 48 97 38 22 -18 18 -38 -7 -46 -13
-3 -59 -28 -103 -54 -86 -50 -231 -131 -415 -230 -127 -68 -156 -90 -147 -114
13 -34 55 -17 302 124 72 40 195 109 275 151 125 67 147 76 159 64 8 -8 13
-16 10 -19 -4 -4 -239 -133 -486 -267 -77 -42 -155 -86 -172 -98 -34 -24 -40
-51 -15 -72 13 -11 20 -10 42 4 15 10 72 43 127 73 55 31 152 87 215 124 190
111 304 171 320 168 30 -6 21 -34 -17 -52 -66 -31 -515 -286 -580 -330 -62
-41 -79 -70 -48 -82 9 -4 67 23 138 63 67 39 190 107 272 153 83 45 181 101
219 123 66 39 69 40 82 22 13 -17 9 -21 -44 -50 -31 -17 -100 -56 -152 -86
-52 -31 -176 -100 -275 -153 -191 -104 -221 -125 -212 -150 13 -32 29 -25 302
124 88 49 214 120 280 159 113 68 153 81 162 55 2 -7 -36 -33 -84 -60 -48 -26
-115 -64 -148 -84 -33 -20 -153 -88 -268 -151 -205 -113 -224 -128 -186 -152
13 -8 29 -4 65 15 85 44 354 193 499 276 103 60 143 78 152 70 7 -6 11 -14 8
-18 -8 -13 -283 -174 -405 -238 -158 -82 -241 -130 -265 -153 -17 -17 -18 -20
-4 -34 13 -13 20 -14 45 -3 49 22 336 180 573 315 72 42 96 51 102 41 5 -7 9
-16 9 -19 0 -10 -171 -107 -480 -274 -226 -121 -242 -134 -207 -163 9 -8 36 1
102 32 89 42 424 228 539 299 65 40 81 44 89 23 4 -10 -16 -27 -61 -54 -37
-21 -123 -73 -192 -114 -69 -42 -192 -112 -274 -155 -82 -44 -154 -87 -160
-96 -8 -12 -7 -21 6 -33 15 -15 29 -10 190 73 170 89 362 200 466 271 50 34
53 35 70 18 15 -16 15 -19 2 -27 -8 -5 -40 -24 -70 -43 -30 -18 -95 -57 -145
-88 -122 -74 -254 -148 -350 -196 -94 -47 -134 -84 -116 -106 10 -12 22 -10
84 18 40 18 96 44 125 56 29 13 58 30 64 37 6 8 38 29 72 47 34 18 132 73 219
121 146 80 160 86 175 71 9 -8 14 -17 11 -18 -2 -2 -24 -14 -49 -27 -173 -91
-307 -166 -378 -212 -46 -30 -127 -76 -180 -104 -100 -52 -121 -77 -87 -105
13 -11 25 -7 78 20 34 18 96 56 137 84 104 69 457 266 491 273 22 4 28 1 34
-17 4 -12 5 -22 3 -24 -1 -1 -82 -40 -178 -88 -156 -76 -398 -218 -488 -285
-23 -17 -32 -32 -30 -46 7 -47 39 -32 316 147 59 38 155 90 213 116 58 26 127
59 152 74 l47 25 16 -30 c9 -17 12 -35 7 -38 -11 -10 -113 -51 -113 -46 0 2
17 16 37 30 52 35 34 31 -26 -6 -28 -16 -87 -46 -133 -66 -46 -19 -119 -61
-163 -93 -44 -31 -107 -71 -140 -88 -87 -46 -160 -104 -160 -127 0 -33 30 -28
106 18 41 24 124 73 184 110 212 126 441 225 466 200 12 -12 -71 -63 -286
-172 -178 -90 -363 -191 -404 -220 -26 -19 -29 -26 -21 -42 6 -10 16 -19 23
-19 14 0 23 5 407 205 157 81 298 148 314 149 35 1 46 -20 15 -29 -12 -4 -77
-39 -143 -77 -67 -38 -173 -94 -236 -125 -156 -76 -330 -183 -330 -204 0 -38
25 -40 83 -5 31 19 152 84 269 146 117 62 250 135 295 163 84 50 113 55 113
18 0 -26 -49 -59 -250 -166 -197 -105 -366 -205 -408 -240 -32 -27 -33 -44 -5
-77 19 -21 38 -16 298 87 241 95 307 111 523 121 130 6 152 9 152 23 0 9 -28
66 -61 126 -82 148 -391 722 -466 865 -73 139 -289 542 -478 890 -76 140 -164
302 -195 360 -31 58 -95 175 -142 260 -93 169 -301 554 -356 663 -19 37 -48
80 -64 96 -30 30 -92 51 -147 51 -34 0 -39 15 -18 44 34 46 188 22 245 -38 33
-36 122 -190 242 -421 70 -135 239 -449 365 -680 18 -33 69 -127 113 -210 44
-82 108 -202 142 -265 97 -178 337 -627 560 -1044 111 -209 225 -421 253 -470
28 -50 67 -120 86 -156 l36 -65 134 -3 133 -3 -6 27 c-4 15 -31 68 -60 118
-29 50 -84 150 -121 221 -38 72 -102 191 -143 265 -41 74 -143 263 -227 420
-84 157 -185 346 -225 420 -75 138 -266 497 -360 675 -29 55 -101 190 -160
300 -59 110 -147 274 -195 365 -198 374 -310 578 -347 637 -85 133 -186 195
-328 200 -52 2 -101 -2 -125 -10z"/>
<path d="M3852 7662 c-16 -5 -16 -191 -1 -264 28 -130 99 -227 204 -280 61
-31 334 -128 361 -128 8 0 20 11 26 25 20 44 -16 240 -62 333 -69 143 -185
245 -324 286 -76 23 -177 37 -204 28z m222 -189 c67 -34 156 -125 190 -195 37
-75 33 -94 -19 -90 -80 7 -192 87 -229 165 -27 59 -48 136 -40 149 7 11 35 2
98 -29z"/>
<path d="M5145 7663 c-183 -25 -312 -119 -394 -283 -39 -79 -43 -95 -53 -211
-7 -69 -9 -133 -5 -142 10 -26 70 -21 170 12 287 97 405 258 395 541 l-3 85
-40 1 c-22 1 -53 0 -70 -3z m-19 -169 c-4 -9 -11 -37 -18 -63 -32 -131 -124
-216 -255 -237 l-43 -7 30 73 c38 93 89 161 148 198 80 52 151 70 138 36z"/>
<path d="M4482 7016 c-70 -81 -136 -196 -158 -281 -18 -65 -18 -206 0 -270 20
-72 58 -154 107 -227 111 -166 138 -181 185 -100 15 26 47 75 70 108 74 110
120 296 103 421 -18 133 -72 236 -174 332 -65 62 -91 65 -133 17z m101 -213
c65 -125 82 -223 53 -314 -23 -74 -69 -169 -82 -169 -19 0 -81 136 -96 207
-16 84 1 191 44 278 18 35 36 65 39 65 4 0 22 -30 42 -67z"/>
<path d="M7498 6914 c-41 -30 -78 -95 -78 -138 0 -65 64 -135 137 -151 74 -15
171 64 180 148 4 34 -1 50 -23 84 -54 82 -147 106 -216 57z m93 -107 c-1 -4
-1 -14 -1 -22 0 -8 -7 -15 -15 -15 -15 0 -21 31 -8 44 8 8 25 3 24 -7z"/>
<path d="M7039 6834 c-179 -121 -268 -309 -240 -508 13 -92 113 -295 200 -406
19 -24 20 -24 54 -8 21 10 63 52 102 100 152 188 195 352 144 551 -24 94 -35
117 -102 215 -47 68 -72 92 -95 92 -5 0 -34 -16 -63 -36z m99 -264 c34 -70 37
-81 37 -165 0 -80 -3 -97 -31 -155 -29 -62 -78 -130 -93 -130 -4 0 -23 31 -44
68 -83 155 -83 266 1 424 l47 88 23 -27 c13 -16 40 -62 60 -103z"/>
<path d="M5618 6362 c-15 -37 -44 -114 -64 -172 -20 -58 -44 -121 -54 -140 -9
-19 -25 -60 -35 -90 -26 -83 -177 -465 -280 -710 -100 -239 -197 -492 -208
-547 -10 -46 -9 -55 6 -70 15 -16 19 -16 32 -2 9 9 42 65 74 125 64 120 94
173 231 409 51 88 119 205 151 260 31 55 68 114 81 130 14 17 44 58 67 92 l43
62 1 338 c0 188 -3 348 -9 360 -8 19 -12 14 -36 -45z"/>
<path d="M7701 6087 c-13 -6 -33 -24 -44 -39 -17 -22 -19 -33 -11 -55 12 -34
68 -73 105 -73 30 0 85 40 94 69 9 29 -12 69 -47 91 -38 23 -63 25 -97 7z"/>
<path d="M6493 6053 c-19 -7 -16 -64 6 -99 10 -17 60 -78 111 -135 110 -125
156 -212 200 -382 50 -195 39 -372 -35 -558 -96 -241 -231 -422 -424 -567
-201 -152 -394 -226 -711 -273 -126 -18 -185 -21 -450 -20 -493 2 -739 -19
-1027 -85 -333 -77 -582 -182 -848 -357 -218 -144 -456 -377 -604 -592 -64
-93 -71 -122 -38 -161 25 -29 25 -29 60 -12 22 11 60 50 107 112 81 108 248
280 360 372 287 233 569 372 943 464 293 73 466 89 942 90 395 1 530 10 714
50 441 97 666 237 921 575 137 183 185 279 242 492 29 109 31 130 32 288 0
202 -18 292 -89 442 -38 80 -58 108 -147 199 -140 145 -203 183 -265 157z"/>
<path d="M7220 5931 c0 -5 -2 -15 -5 -23 -3 -7 29 -53 70 -103 95 -113 266
-380 315 -494 86 -197 116 -361 107 -576 -13 -286 -67 -521 -167 -720 -110
-219 -175 -311 -324 -461 -207 -207 -427 -339 -728 -438 -257 -85 -428 -105
-983 -117 -231 -4 -454 -13 -495 -18 -401 -52 -642 -123 -919 -267 -341 -177
-654 -458 -849 -758 -115 -179 -123 -212 -60 -259 48 -36 73 -17 149 108 106
175 305 394 493 544 226 179 443 291 715 370 283 81 431 99 931 111 217 5 433
12 480 15 453 34 850 170 1165 400 112 82 149 119 295 290 191 226 288 394
365 636 64 203 79 313 80 569 0 262 -10 326 -81 533 -104 301 -258 529 -424
628 -62 37 -130 52 -130 30z"/>
<path d="M7040 5832 c0 -10 18 -73 39 -139 80 -242 106 -495 72 -693 -25 -148
-87 -333 -161 -482 -74 -148 -266 -377 -424 -505 -190 -155 -569 -285 -912
-313 -65 -5 -254 -12 -419 -15 -508 -10 -708 -28 -974 -91 -407 -95 -804 -316
-1117 -621 -60 -59 -135 -139 -166 -178 -90 -114 -225 -319 -233 -355 -7 -30
-4 -37 24 -62 55 -49 82 -37 146 68 139 230 402 493 673 675 158 106 220 138
407 212 345 135 570 168 1305 187 560 15 761 48 1079 179 224 93 529 391 713
697 110 184 185 422 208 668 32 325 30 360 -15 506 -57 182 -112 253 -212 275
-28 6 -33 4 -33 -13z"/>
<path d="M4481 5794 c-46 -59 -8 -134 67 -134 49 0 72 24 72 74 0 77 -94 118
-139 60z"/>
<path d="M6515 5583 c-4 -10 -8 -121 -9 -248 l-1 -230 -34 -100 c-64 -191
-155 -342 -299 -500 -51 -55 -92 -103 -92 -106 0 -14 143 42 193 75 216 143
412 551 394 820 -6 95 -32 172 -85 246 -42 60 -56 69 -67 43z"/>
<path d="M7366 5407 c-22 -16 -20 -45 14 -225 37 -191 23 -471 -31 -648 -89
-291 -284 -588 -534 -813 -79 -71 -239 -176 -317 -208 -85 -35 -304 -97 -408
-117 -176 -32 -235 -37 -647 -46 -420 -9 -646 -26 -874 -65 -102 -18 -320 -81
-451 -131 -407 -155 -819 -489 -1077 -873 -72 -107 -91 -143 -91 -175 0 -30
43 -66 80 -66 32 0 52 21 115 125 62 101 196 257 311 363 400 366 735 526
1284 612 153 23 289 31 710 40 476 10 582 20 815 74 196 46 417 148 566 260
110 83 274 250 358 365 246 336 329 554 371 969 17 167 -7 352 -62 482 -29 67
-94 105 -132 77z"/>
<path d="M2858 3942 c-35 -33 -41 -45 -46 -90 -4 -50 -3 -53 36 -92 36 -37 44
-40 93 -40 124 0 187 105 119 200 -28 39 -69 60 -120 60 -33 0 -48 -7 -82 -38z"/>
<path d="M7634 3495 c-15 -20 -25 -37 -23 -39 9 -9 35 -10 62 -3 29 8 38 42
15 65 -18 18 -25 15 -54 -23z"/>
<path d="M7464 3304 c-131 -130 -293 -262 -422 -344 -92 -58 -98 -72 -54 -121
35 -39 54 -36 142 23 83 55 408 368 442 427 28 46 33 79 19 115 -7 17 -24 4
-127 -100z"/>
<path d="M6734 2829 c-33 -12 -74 -31 -90 -44 l-29 -24 25 -48 c31 -60 57 -65
132 -27 93 46 102 63 71 129 -19 40 -27 41 -109 14z"/>
<path d="M6361 2710 c-39 -18 -43 -22 -36 -47 13 -54 32 -73 76 -73 22 0 53 7
69 15 25 13 30 22 30 51 0 55 -15 74 -58 74 -20 0 -57 -9 -81 -20z"/>
<path d="M6154 2680 c-46 -18 -36 -114 12 -126 29 -7 68 1 100 23 19 12 24 24
24 58 0 30 -5 45 -16 49 -22 9 -95 6 -120 -4z"/>
<path d="M5810 2653 c-42 -8 -53 -23 -47 -65 3 -22 10 -45 17 -53 16 -19 85
-28 140 -17 l45 8 -2 59 c-1 35 -7 62 -15 66 -13 9 -94 10 -138 2z"/>
<path d="M5446 2619 c-37 -29 -32 -66 13 -96 37 -25 109 -31 129 -11 17 17 15
79 -4 106 -21 31 -100 31 -138 1z"/>
<path d="M4984 2609 c-17 -5 -38 -17 -48 -28 -18 -20 -24 -69 -12 -90 9 -14
154 -15 176 -1 10 6 15 26 15 60 0 34 -5 54 -15 60 -18 12 -74 11 -116 -1z"/>
<path d="M5270 2584 c-15 -39 -9 -59 21 -62 31 -4 46 12 51 53 3 27 0 30 -30
33 -27 3 -34 -1 -42 -24z"/>
<path d="M4699 2560 c-55 -10 -108 -35 -116 -56 -10 -26 16 -94 39 -103 32
-11 99 4 168 39 52 26 60 34 60 58 0 60 -50 80 -151 62z"/>
<path d="M4360 2441 c-63 -20 -121 -49 -235 -116 -134 -79 -162 -119 -113
-165 35 -32 60 -25 171 47 39 25 114 64 165 86 52 22 96 46 99 54 7 18 -5 76
-20 95 -11 15 -17 15 -67 -1z"/>
<path d="M5785 2355 c-27 -26 -30 -41 -15 -79 9 -25 56 -56 84 -56 49 0 64 93
21 135 -13 14 -33 25 -45 25 -11 0 -32 -11 -45 -25z"/>
<path d="M5486 2339 c-28 -22 -33 -48 -14 -82 16 -31 39 -46 69 -47 35 0 59
29 59 73 0 69 -60 98 -114 56z"/>
<path d="M5030 2321 c-29 -56 11 -121 74 -121 64 0 85 71 36 120 -27 27 -95
28 -110 1z"/>
</g>
</svg>
